<svg id="图层_1" data-name="图层 1" xmlns="http://www.w3.org/2000/svg" viewBox="0 0 422.1 357.59"><defs><style>.cls-1,.cls-3,.cls-4,.cls-5,.cls-6{fill:none;}.cls-1,.cls-3,.cls-4{stroke:#040000;stroke-miterlimit:10;}.cls-1{stroke-width:7px;}.cls-2{fill:#040000;}.cls-3{stroke-width:9px;}.cls-4{stroke-width:4px;}.cls-5,.cls-6{stroke:#000;stroke-linecap:round;stroke-linejoin:round;}.cls-5{stroke-width:6px;}.cls-6{stroke-width:8px;}</style></defs><path d="M222.64,219.3l-3.11-7.21a33.94,33.94,0,0,0,19.78-31.27A33.18,33.18,0,0,0,207,146.91a30.39,30.39,0,0,0-4.47.36,3.88,3.88,0,0,1-4.22-2.52A40.94,40.94,0,0,0,160,117.24a39.89,39.89,0,0,0-28.84,12.41A3.9,3.9,0,0,1,126,130,20.66,20.66,0,0,0,113,125.42,22.15,22.15,0,0,0,91.5,148.08a23.5,23.5,0,0,0,1.7,8.85,4,4,0,0,1-.1,3.21,3.9,3.9,0,0,1-2.44,2.07A26.63,26.63,0,0,0,71.92,188a27.12,27.12,0,0,0,9.83,21.12l-4.93,6.11A35.3,35.3,0,0,1,84.68,156a31.61,31.61,0,0,1-1-7.92A30,30,0,0,1,113,117.54a28.2,28.2,0,0,1,15,4.28,47.46,47.46,0,0,1,32-12.46,48.51,48.51,0,0,1,44.44,29.77c.84-.06,1.69-.09,2.53-.1a41,41,0,0,1,40.12,41.79,41.79,41.79,0,0,1-24.46,38.48ZM119.18,249.68A19.48,19.48,0,0,1,99.8,230.13V215.48h7.81v14.66a11.57,11.57,0,1,0,23.13,0V170.57a19.38,19.38,0,0,1,38.75,0v33h-7.81v-33a11.57,11.57,0,1,0-23.13,0v59.57a19.46,19.46,0,0,1-19.37,19.55Zm-13.63-29.41a15.66,15.66,0,0,1-16-15.21V181.84a3.92,3.92,0,0,1,3.89-3.94h24.27a3.93,3.93,0,0,1,3.9,3.94v23.23a15.67,15.67,0,0,1-16,15.23ZM97.3,185.78v19.29a8.29,8.29,0,0,0,16.47,0V185.78ZM116.8,200H93.37v-7.88H116.8Zm-1.67-19h-7.81v-7.11h-3.58V181H95.93V169.92a3.93,3.93,0,0,1,3.9-3.94h11.38a3.92,3.92,0,0,1,3.89,3.94V181Zm91.65,76.26-5.52-5.57,11.87-12-11.87-12,5.52-5.58L221.4,236.9a4,4,0,0,1,0,5.57Zm-37.93,0-14.63-14.76a4,4,0,0,1,0-5.57l14.62-14.77,5.53,5.57-11.87,12,11.87,12Zm15.71-3-7.08-3.33,12.23-26.48,7.08,3.34Zm-9.19-38.55h-7.81v-7.88h7.81Zm11.71,0h-7.8v-7.88h7.81v7.87Zm11.72,0H191v-7.88h7.81v7.87Zm11.71,0h-7.8v-7.88h7.79v7.87Zm0,0" transform="translate(-37.56 -109.36)"/><path class="cls-1" d="M451,463.45H359.49c-2.85,0-5.18-2.69-5.18-6V252.4c0-3.3,2.33-6,5.18-6H451c2.85,0,5.18,2.69,5.18,6V457.46c0,3.3-2.33,6-5.18,6Zm-86.3-12" transform="translate(-37.56 -109.36)"/><path class="cls-2" d="M434.72,305.47H375.09a2.89,2.89,0,0,1-3.11-3V274.29a2.89,2.89,0,0,1,3.11-3h59.63a2.88,2.88,0,0,1,3.1,3v28.18a3.07,3.07,0,0,1-3.1,3Zm-56.53-6h53.42V277.28H378.19Zm56.53,58.46H375.09a2.89,2.89,0,0,1-3.11-3V326.75a2.89,2.89,0,0,1,3.11-3h59.63a2.88,2.88,0,0,1,3.1,3v28.18a3.28,3.28,0,0,1-3.1,3Zm-56.53-6h53.42V329.75H378.19Zm26.71,66.56c-11.8,0-21.12-9.3-21.12-20.39,0-11.39,9.63-20.39,21.12-20.39,11.8,0,21.12,9.3,21.12,20.39,0,11.39-9.63,20.39-21.12,20.39Zm0-34.78A14.66,14.66,0,0,0,390,398.1c0,8.09,6.83,14.39,14.9,14.39a14.66,14.66,0,0,0,14.91-14.39c0-7.79-6.83-14.39-14.91-14.39Z" transform="translate(-37.56 -109.36)"/><path class="cls-3" d="M275.89,401.93H48.71c-3.66,0-6.65-2.23-6.65-4.95V280c0-2.72,3-5,6.65-5H275.89c3.66,0,6.65,2.23,6.65,5V397c0,2.72-3,4.95-6.65,4.95ZM55.35,392" transform="translate(-37.56 -109.36)"/><path class="cls-2" d="M275.89,388.09H48.71a43.43,43.43,0,0,1-6.65-.26v-6.22a43.43,43.43,0,0,1,6.65-.26H275.89a43.43,43.43,0,0,1,6.65.26v6.22a43.43,43.43,0,0,1-6.65.26Zm-220.54-.53" transform="translate(-37.56 -109.36)"/><rect class="cls-4" x="139.83" y="333.59" width="57.56" height="2.5"/><ellipse class="cls-2" cx="69.83" cy="335.59" rx="7.54" ry="5.8"/><path class="cls-5" d="M255.3,401.93s7.28,13.38,31.21,25,26.55-24.87,41-30.86,23.89,5.87,23.89,5.87" transform="translate(-37.56 -109.36)"/><path class="cls-1" d="M248.66,462H75.94c-3.65,0-6.64-2.31-6.64-5.12V432c0-2.81,3-5.11,6.64-5.11H248.66c3.65,0,6.64,2.3,6.64,5.11v24.81c0,2.81-3,5.12-6.64,5.12Z" transform="translate(-37.56 -109.36)"/><path class="cls-2" d="M198.51,406.6a4.71,4.71,0,0,1,1.61.27l12,17.65H112.5l12-17.71a5.07,5.07,0,0,1,1.57-.21h72.41m0-6H126.1c-3,0-5.32,1-6.31,2.51l-15,22a2.41,2.41,0,0,0,.66,3.67,8.54,8.54,0,0,0,5.65,1.74h102.3a11.57,11.57,0,0,0,5.65-1.74,2.71,2.71,0,0,0,.66-3.67l-14.94-22c-1-1.54-3.66-2.51-6.31-2.51Z" transform="translate(-37.56 -109.36)"/><polyline class="cls-6" points="124.67 185.6 124.67 235.14 102.66 220.38"/><polyline class="cls-6" points="124.97 185.6 124.97 235.14 146.97 220.38"/><line class="cls-6" x1="77.36" y1="254.87" x2="173.37" y2="254.87"/><path d="M303.18,140.18a6.06,6.06,0,0,0,6.06,6h71.49c7.42,0,12.8,6.17,12.8,14.65v48.33l-10.22-10.27a6,6,0,0,0-8.55,0,6.18,6.18,0,0,0,0,8.55l16.91,17a11.15,11.15,0,0,0,15.88,0l16.87-17.07a6,6,0,0,0-8.58-8.51l-10.22,10.27V161A28,28,0,0,0,399,142.34a23.9,23.9,0,0,0-18.23-8.24H309.24a6.09,6.09,0,0,0-4.3,1.78,6,6,0,0,0-1.76,4.3Z" transform="translate(-37.56 -109.36)"/></svg>