<svg id="图层_1" data-name="图层 1" xmlns="http://www.w3.org/2000/svg" viewBox="0 0 421.27 256.58"><defs><style>.cls-1,.cls-2{fill:none;stroke:#000;stroke-miterlimit:10;}.cls-1{stroke-width:10px;}.cls-2{stroke-width:6px;}.cls-3{fill:#231815;}</style></defs><path class="cls-1" d="M244.57,162.11c-37.68-4.26-66-14.46-84.26-30.31l-4.8-4.17-5.17,3.7c-28.57,20.39-56.82,30.73-84,30.73H58.32V274.88c0,34.59,30.49,66,93.23,95.91l3.29,1.58,3.36-1.45c62.06-26.66,93.52-59,93.52-96v-112Z" transform="translate(-53.32 -121.28)"/><path class="cls-2" d="M225.13,181.19c-29.5-3.34-51.7-11.32-66-23.73l-3.75-3.27-4,2.9c-22.37,16-44.49,24.06-65.74,24.06H79.31v88.33c0,27.08,23.87,51.64,73,75.09l2.58,1.24,2.63-1.13c48.59-20.88,73.22-46.17,73.22-75.2V181.82Z" transform="translate(-53.32 -121.28)"/><path d="M193.66,232.26h-7.72v-6.48a.25.25,0,0,0-.23-.22h-5.28V214a23.63,23.63,0,0,0-7.76-17.4,26.75,26.75,0,0,0-18.26-7.12c-14.12,0-25.59,11-25.59,24.52v11.58h-5.17a.24.24,0,0,0-.22.22v6.48h-7.81a2.67,2.67,0,0,0-2.66,2.66v64a2.66,2.66,0,0,0,2.66,2.66h78.06a2.67,2.67,0,0,0,2.66-2.66v-64a2.7,2.7,0,0,0-2.68-2.66ZM133.24,214c0-11.07,9.49-20.08,21.14-20.08S176,203.08,176,214v11.58h-2.08v-9.79a19.13,19.13,0,0,0-38.26,0v9.79h-2.39Zm13.51,11.58h-6.68v-9.79a14.69,14.69,0,0,1,29.38,0v9.79h-6.88a.24.24,0,0,0-.22.22v6.48H147v-6.48a.19.19,0,0,0-.2-.22Zm45.13,50.9h-7v2.22h7V286H175.44v2.22h16.44v8.88H117.37v-8.88h16.44V286H117.37v-7.32h7v-2.22h-7V236.7h74.51Zm0,0" transform="translate(-53.32 -121.28)"/><path class="cls-3" d="M145.06,255.09a9.59,9.59,0,1,0,9.59-9.59,9.59,9.59,0,0,0-9.59,9.59Zm0,0" transform="translate(-53.32 -121.28)"/><path class="cls-3" d="M160.55,288.3h-11.8l2.95-31h5.9Zm0,0" transform="translate(-53.32 -121.28)"/><path d="M418.33,273.55a3.63,3.63,0,0,1-1.3-.16L312.68,231.13a3.24,3.24,0,0,1-1.79-4.22l22.76-55.76a3.24,3.24,0,0,1,6,2.44l-21.29,52.67,98.34,39.82,10.07-24.87a3.25,3.25,0,1,1,6,2.44l-11.38,27.79a3.27,3.27,0,0,1-1.79,1.79,2,2,0,0,1-1.3.32Zm0,0" transform="translate(-53.32 -121.28)"/><path d="M429.71,245.76a3.34,3.34,0,0,1-3.09-2.11,3.25,3.25,0,0,1,1.95-4.23l33.81-12.68L338.52,176.52l-10.08,24.87a3.24,3.24,0,0,1-6-2.44l11.38-27.8a3.3,3.3,0,0,1,4.23-1.78L472.62,224a3.24,3.24,0,0,1-.16,6L430.85,245.6a3.25,3.25,0,0,1-1.14.16Zm0,0" transform="translate(-53.32 -121.28)"/><path d="M439.46,269.17a3.43,3.43,0,0,1-1.3-.17l-16.09-6.5a3.24,3.24,0,0,1-1.79-4.22l7-17.23a3.06,3.06,0,0,1,2-1.79l16.09-6a3.22,3.22,0,0,1,2.44,0l4.39,1.79a3.31,3.31,0,0,1,1.79,4.23l-11.38,28a3.19,3.19,0,0,1-3.09,1.95Zm-11.7-11.54,10.08,4.06,8.94-21.94h-.17l-13.49,5Zm-47.63,23.89a3.66,3.66,0,0,1-1.3-.16l-44.21-18a3.32,3.32,0,0,1-1.79-4.23l7.64-18.86a3.23,3.23,0,0,1,1.79-1.78,3.13,3.13,0,0,1,2.44,0l44.21,18a3.29,3.29,0,0,1,1.79,4.22l-7.48,18.86a3.21,3.21,0,0,1-1.79,1.79c-.32,0-.81.16-1.3.16Zm-40-23.08,38.2,15.6,5.2-12.84-38.2-15.44ZM285.37,363.6a3.26,3.26,0,0,1-3.25-3.25V160.43a3.25,3.25,0,1,1,6.5,0V360.35a3.26,3.26,0,0,1-3.25,3.25Zm0,0" transform="translate(-53.32 -121.28)"/><path d="M341.61,312.24H285.37a3.25,3.25,0,0,1,0-6.5H339.5l16.41-37.39a3.21,3.21,0,0,1,5.86,2.6L344.7,310.29a3.64,3.64,0,0,1-3.09,1.95Zm88.1-68.11a1,1,0,0,1-.65-.16L325.52,201.06a1.6,1.6,0,0,1,1.3-2.92l103.54,42.91a1.49,1.49,0,0,1,.81,2.11,1.55,1.55,0,0,1-1.46,1Zm0,0" transform="translate(-53.32 -121.28)"/></svg>