<svg id="图层_1" data-name="图层 1" xmlns="http://www.w3.org/2000/svg" viewBox="0 0 224 159.73"><defs><style>.cls-1,.cls-2,.cls-3{fill:none;stroke:#000;stroke-linecap:round;stroke-linejoin:round;}.cls-1{stroke-width:4px;}.cls-2{stroke-width:2px;}.cls-3{stroke-width:3px;stroke-dasharray:8.11 10.14;}</style></defs><path d="M57.81,160.92h0a4.33,4.33,0,0,1-4.32-4.31l0-62.44a4.32,4.32,0,0,1,4.31-4.32l16.14,0a4.33,4.33,0,0,1,4.32,4.31l0,62.44a4.32,4.32,0,0,1-4.32,4.32ZM73.9,92,57.77,92a2.13,2.13,0,0,0-2.13,2.13l0,62.43a2.12,2.12,0,0,0,2.12,2.13l16.14,0a2.13,2.13,0,0,0,2.13-2.13l0-62.43A2.13,2.13,0,0,0,73.9,92Zm0,0" transform="translate(-38 -56.93)"/><path d="M73.61,105.67H58.1a1.09,1.09,0,0,1-1.09-1.1V97.92a1.09,1.09,0,0,1,1.09-1.09H73.61a1.09,1.09,0,0,1,1.09,1.09v6.65a1.09,1.09,0,0,1-1.09,1.1ZM59.2,103.48H72.51V99H59.2Zm0,0" transform="translate(-38 -56.93)"/><path d="M73.61,156.21H58.1a1.09,1.09,0,0,1-1.09-1.1V140.33a1.09,1.09,0,0,1,1.09-1.09H73.61a1.09,1.09,0,0,1,1.09,1.09v14.78a1.09,1.09,0,0,1-1.09,1.1ZM59.2,154H72.51V141.43H59.2Zm2.82-45h7.66v26.42H62Zm0,0" transform="translate(-38 -56.93)"/><path d="M80.43,160.92h0a4.32,4.32,0,0,1-4.32-4.31l0-62.44a4.31,4.31,0,0,1,4.31-4.32l16.14,0a4.33,4.33,0,0,1,4.32,4.31l0,62.44a4.32,4.32,0,0,1-4.32,4.32ZM96.52,92,80.39,92a2.13,2.13,0,0,0-2.13,2.13l0,62.43a2.13,2.13,0,0,0,2.13,2.13l16.14,0a2.12,2.12,0,0,0,2.12-2.13l0-62.43A2.13,2.13,0,0,0,96.52,92Zm0,0" transform="translate(-38 -56.93)"/><path d="M96.22,105.67H80.72a1.1,1.1,0,0,1-1.1-1.1V97.92a1.09,1.09,0,0,1,1.1-1.09h15.5a1.09,1.09,0,0,1,1.1,1.09v6.65a1.1,1.1,0,0,1-1.1,1.1Zm-14.41-2.19H95.13V99H81.81Zm0,0" transform="translate(-38 -56.93)"/><path d="M96.22,156.21H80.72a1.1,1.1,0,0,1-1.1-1.1V140.33a1.09,1.09,0,0,1,1.1-1.09h15.5a1.09,1.09,0,0,1,1.1,1.09v14.78a1.1,1.1,0,0,1-1.1,1.1ZM81.81,154H95.13V141.43H81.81Zm2.83-45H92.3v26.42H84.64Zm0,0" transform="translate(-38 -56.93)"/><path d="M103,160.92h0a4.32,4.32,0,0,1-4.32-4.31l0-62.44A4.33,4.33,0,0,1,103,89.85l16.13,0a4.33,4.33,0,0,1,4.33,4.31l0,62.44a4.3,4.3,0,0,1-4.31,4.32ZM119.14,92,103,92a2.13,2.13,0,0,0-2.13,2.13l0,62.43a2.13,2.13,0,0,0,2.13,2.13l16.13,0a2.12,2.12,0,0,0,2.13-2.13l0-62.43A2.13,2.13,0,0,0,119.14,92Zm0,0" transform="translate(-38 -56.93)"/><path d="M118.84,105.67h-15.5a1.1,1.1,0,0,1-1.1-1.1V97.92a1.09,1.09,0,0,1,1.1-1.09h15.5a1.09,1.09,0,0,1,1.1,1.09v6.65a1.1,1.1,0,0,1-1.1,1.1Zm-14.41-2.19h13.32V99H104.43Zm0,0" transform="translate(-38 -56.93)"/><path d="M118.84,156.21h-15.5a1.1,1.1,0,0,1-1.1-1.1V140.33a1.09,1.09,0,0,1,1.1-1.09h15.5a1.09,1.09,0,0,1,1.1,1.09v14.78a1.1,1.1,0,0,1-1.1,1.1ZM104.43,154h13.32V141.43H104.43Zm0,0" transform="translate(-38 -56.93)"/><rect x="69.26" y="52.12" width="7.66" height="26.41"/><rect class="cls-1" x="2" y="2" width="220" height="140" rx="10"/><line class="cls-2" x1="2" y1="124.73" x2="222" y2="124.73"/><line class="cls-1" x1="48.12" y1="157.73" x2="175.88" y2="157.73"/><polyline class="cls-1" points="189.72 60.06 180.84 48.73 180.84 88.13"/><polyline class="cls-1" points="162.04 76.8 170.92 88.13 170.92 48.73"/><polyline class="cls-2" points="123.55 59.47 131.9 68.43 123.55 77.39"/><polyline class="cls-2" points="116.32 59.47 124.67 68.43 116.32 77.39"/><polyline class="cls-2" points="109.08 59.47 117.43 68.43 109.08 77.39"/><polyline class="cls-2" points="101.85 59.47 110.2 68.43 101.85 77.39"/><polyline class="cls-2" points="94.62 59.47 102.97 68.43 94.62 77.39"/><path class="cls-3" d="M248.74,125.37a34.86,34.86,0,0,1-34.86,34.86c-46.24-1.84-46.23-67.9,0-69.73a34.86,34.86,0,0,1,34.86,34.87Z" transform="translate(-38 -56.93)"/></svg>