<svg id="图层_1" data-name="图层 1" xmlns="http://www.w3.org/2000/svg" viewBox="0 0 682.67 682.67"><defs><style>.cls-1{fill:#fff;}</style></defs><path class="cls-1" d="M205.5-20.73a16.57,16.57,0,0,1,11.4,4.58,15.26,15.26,0,0,1,4.71,11V41.36h113c8.87,0,16.11,7,16.11,15.54V243.06a15.84,15.84,0,0,1-16.11,15.53H221.61v77.58a15.81,15.81,0,0,1-16.11,15.5H173.17a16.46,16.46,0,0,1-11.4-4.54,15.27,15.27,0,0,1-4.71-11V258.59H44.15a16.5,16.5,0,0,1-11.4-4.54,15.24,15.24,0,0,1-4.75-11V56.9a15.28,15.28,0,0,1,4.75-11,16.5,16.5,0,0,1,11.4-4.54H157.06V-5.16a15.31,15.31,0,0,1,4.71-11,16.41,16.41,0,0,1,11.4-4.54h32.3ZM-246.19,103.45c17.82,0,32.26,13.89,32.26,31.06v31c0,32.49,26,59.49,59.7,61.91l4.84.17h64.52c17.54.38,31.53,14.17,31.53,31s-14,30.65-31.53,31h-64.52c-71.27,0-129-55.57-129-124.14v-31c0-17.17,14.4-31.06,32.22-31.06Zm403.29,0H92.59v93.12H157.1Zm129,0H221.61v93.12h64.51ZM-144.13-331a16.18,16.18,0,0,1,15,9.77h-.14L-.19-11A15,15,0,0,1-1.79,3.51a16.34,16.34,0,0,1-13.39,6.83H-50A16.17,16.17,0,0,1-64.94.58L-99.59-82.74h-132L-266.16.58a16.15,16.15,0,0,1-15,9.76h-34.71a16.31,16.31,0,0,1-13.38-6.83A15,15,0,0,1-330.84-11l129-310.27A16.17,16.17,0,0,1-186.76-331Zm317.3,62.06a131.72,131.72,0,0,1,91.28,36.35,121.76,121.76,0,0,1,37.78,87.79v31c-.37,16.87-14.71,30.35-32.25,30.35s-31.85-13.48-32.26-30.35v-31a60.77,60.77,0,0,0-18.91-43.89,65.83,65.83,0,0,0-45.64-18.2H108.66c-17.51-.37-31.54-14.16-31.54-31s14-30.65,31.54-31ZM-165.57-241.5l-40.14,96.67h80.39l-40.21-96.67Zm0,0" transform="translate(332 331)"/></svg>