<?xml version="1.0" encoding="utf-8"?>
<!-- Generator: Adobe Illustrator 23.1.0, SVG Export Plug-In . SVG Version: 6.00 Build 0)  -->
<svg version="1.1" id="图层_1" xmlns="http://www.w3.org/2000/svg" xmlns:xlink="http://www.w3.org/1999/xlink" x="0px" y="0px"
	 viewBox="0 0 716.88 662.16" style="enable-background:new 0 0 716.88 662.16;" xml:space="preserve">
<style type="text/css">
	.st0{clip-path:url(#SVGID_2_);}
</style>
<g>
	<defs>
		<rect id="SVGID_1_" width="716.88" height="662.16"/>
	</defs>
	<clipPath id="SVGID_2_">
		<use xlink:href="#SVGID_1_"  style="overflow:visible;"/>
	</clipPath>
	<path class="st0" d="M716.88,620.8c0,22.88-18.56,41.36-41.36,41.36H41.36C18.56,662.16,0,643.6,0,620.8V482.88
		c0-22.88,18.56-41.36,41.36-41.36h200.32l58.16,58.64c15.92,15.52,36.64,24.16,58.56,24.16c22,0,42.64-8.64,58.56-24.16
		l58.56-58.64h199.92c22.8,0,41.36,18.56,41.36,41.36V620.8H716.88z M570.8,267.76L377.84,460.88c-5.2,5.6-12.48,8.16-19.36,8.16
		c-6.88,0-14.24-2.56-19.36-8.16L146.08,267.76c-8.16-7.76-10.32-19.84-6-30.16c4.32-9.92,14.24-16.8,25.44-16.8h110.32V27.6
		c0-15.12,12.48-27.6,27.6-27.6H413.6c15.04,0,27.6,12.48,27.6,27.6v193.12h110.32c11.2,0,21.12,6.88,25.44,16.8
		C581.12,247.92,579.04,260,570.8,267.76 M523.84,551.84c-15.04,0-27.6,12.48-27.6,27.6c0,15.12,12.48,27.6,27.6,27.6
		c15.04,0,27.6-12.48,27.6-27.6C551.44,564.32,538.96,551.84,523.84,551.84 M634.16,551.84c-15.04,0-27.6,12.48-27.6,27.6
		c0,15.12,12.48,27.6,27.6,27.6c15.04,0,27.6-12.48,27.6-27.6C661.76,564.32,649.2,551.84,634.16,551.84"/>
</g>
</svg>
