<?xml version="1.0" encoding="utf-8"?>
<!-- Generator: Adobe Illustrator 23.1.0, SVG Export Plug-In . SVG Version: 6.00 Build 0)  -->
<svg version="1.1" id="图层_1" xmlns="http://www.w3.org/2000/svg" xmlns:xlink="http://www.w3.org/1999/xlink" x="0px" y="0px"
	 viewBox="0 0 736.8 839.2" style="enable-background:new 0 0 736.8 839.2;" xml:space="preserve">
<style type="text/css">
	.st0{clip-path:url(#SVGID_2_);fill:#FFFFFF;}
	
		.st1{clip-path:url(#SVGID_2_);fill:none;stroke:#FFFFFF;stroke-width:20;stroke-linecap:round;stroke-linejoin:round;stroke-miterlimit:10;}
</style>
<g>
	<defs>
		<rect id="SVGID_1_" width="736.8" height="839.2"/>
	</defs>
	<clipPath id="SVGID_2_">
		<use xlink:href="#SVGID_1_"  style="overflow:visible;"/>
	</clipPath>
	<path class="st0" d="M720.58,214.8L470.8,10H81.68C40.72,10,10,56.08,10,97.04v670.75c0,40.93,30.72,61.41,71.68,61.41h573.44
		c40.96,0,71.68-15.36,71.68-61.41V220.42L720.58,214.8z M470.8,74.05L638.91,214.8H470.8V74.05z M675.6,731.94
		c0,20.48-15.36,46.06-35.82,46.06H86.8c-15.39,0-25.6-20.48-25.6-35.81v-640c0-20.51,15.34-40.99,40.96-40.99H419.6V266h256V731.94
		z M419.6,496.4l76.8-76.8l35.82,30.72L368.38,614.16L204.56,450.32l35.84-30.72l76.8,76.82V317.2h102.4V496.4z M163.6,624.4h409.6
		v51.2H163.6V624.4z"/>
	<path class="st1" d="M720.58,214.8L470.8,10H81.68C40.72,10,10,56.08,10,97.04v670.75c0,40.93,30.72,61.41,71.68,61.41h573.44
		c40.96,0,71.68-15.36,71.68-61.41V220.42L720.58,214.8z M470.8,74.05L638.91,214.8H470.8V74.05z M675.6,731.94
		c0,20.48-15.36,46.06-35.82,46.06H86.8c-15.39,0-25.6-20.48-25.6-35.81v-640c0-20.51,15.34-40.99,40.96-40.99H419.6V266h256V731.94
		z M419.6,496.4l76.8-76.8l35.82,30.72L368.38,614.16L204.56,450.32l35.84-30.72l76.8,76.82V317.2h102.4V496.4z M163.6,624.4h409.6
		v51.2H163.6V624.4z"/>
</g>
</svg>
