<svg id="图层_1" data-name="图层 1" xmlns="http://www.w3.org/2000/svg" viewBox="0 0 364.42 286.93"><defs><style>.cls-1,.cls-2,.cls-3,.cls-4,.cls-5,.cls-6,.cls-7{fill:none;stroke:#000;}.cls-1,.cls-2,.cls-3,.cls-4{stroke-linecap:round;stroke-linejoin:round;}.cls-1{stroke-width:6px;}.cls-2,.cls-6{stroke-width:4px;}.cls-3,.cls-5{stroke-width:3px;}.cls-4,.cls-7{stroke-width:2px;}.cls-5,.cls-6,.cls-7{stroke-miterlimit:10;}</style></defs><rect class="cls-1" x="3" y="3" width="220" height="140" rx="10"/><line class="cls-2" x1="3" y1="125.73" x2="223" y2="125.73"/><path class="cls-3" d="M220.12,291.74H135.59a4.9,4.9,0,0,1-2.82-8.91L155,267.13l3.11-24.6h38.13l3,23.65L223,282.79A4.92,4.92,0,0,1,220.12,291.74Z" transform="translate(-64.84 -99.53)"/><circle class="cls-4" cx="113" cy="158.66" r="8.19"/><path class="cls-5" d="M179.19,206.23l45.86,7.5V171.36H179.19v34.87Zm0-77.25v34.77h45.86V121.37Zm-48.51,34.77h38.78v-33.5l-38.78,6.44Zm0,34.87L169.46,205V171.35H130.68Zm0,0" transform="translate(-64.84 -99.53)"/><path class="cls-6" d="M331.22,103.93a13.74,13.74,0,0,0-13.72,13.72V221.91a13.72,13.72,0,0,0,13.72,13.72h82.31a13.73,13.73,0,0,0,13.72-13.72V117.65a13.74,13.74,0,0,0-13.72-13.72Z" transform="translate(-64.84 -99.53)"/><path class="cls-7" d="M367.35,221.91a5.49,5.49,0,1,1,5.48,5.49,5.48,5.48,0,0,1-5.48-5.49Z" transform="translate(-64.84 -99.53)"/><path class="cls-7" d="M413.53,213.68H331.22a2.75,2.75,0,0,1-2.75-2.75V123.14a2.75,2.75,0,0,1,2.75-2.75h82.31a2.74,2.74,0,0,1,2.74,2.75v87.8a2.74,2.74,0,0,1-2.74,2.74Z" transform="translate(-64.84 -99.53)"/><path class="cls-7" d="M370.09,114.9a2.74,2.74,0,1,1,2.74,2.74,2.74,2.74,0,0,1-2.74-2.74Z" transform="translate(-64.84 -99.53)"/><path class="cls-4" d="M413.53,359.57a11.81,11.81,0,0,1-1.09,5.07,13.56,13.56,0,0,1-3,4.14,14.13,14.13,0,0,1-4.47,2.83,14.51,14.51,0,0,1-5.5,1H360.78a14.56,14.56,0,0,1-5.51-1,14.13,14.13,0,0,1-4.47-2.83,13.36,13.36,0,0,1-3-4.14,11.81,11.81,0,0,1-1.09-5.07v-73a12.2,12.2,0,0,1,1.09-5.12,13.16,13.16,0,0,1,3-4.2,14.13,14.13,0,0,1,4.47-2.83,14.56,14.56,0,0,1,5.51-1h38.69a14.51,14.51,0,0,1,5.5,1,14.13,14.13,0,0,1,4.47,2.83,13.34,13.34,0,0,1,3,4.2,12.2,12.2,0,0,1,1.09,5.12Zm-8.83-67.8H355.44v62.46H404.7Zm-24.63,65.51a5.54,5.54,0,0,0-4,1.64,5.37,5.37,0,0,0-1.69,4,5.66,5.66,0,0,0,9.7,4,5.56,5.56,0,0,0,1.64-4,5.6,5.6,0,0,0-5.67-5.67Zm8.72-74.77a1.71,1.71,0,0,0-.55-1.36,1.73,1.73,0,0,0-1.2-.49H373.2a1.82,1.82,0,0,0-1.14.49,1.65,1.65,0,0,0-.6,1.36,1.73,1.73,0,0,0,.54,1.36,1.77,1.77,0,0,0,1.2.49H387a1.73,1.73,0,0,0,1.2-.49,1.71,1.71,0,0,0,.55-1.36Zm0,0" transform="translate(-64.84 -99.53)"/><path class="cls-5" d="M249.77,308.63c3.13,0,5.93,0,8.14,1.46,2.89,1.87,3.36,3.84,3.36,6.85v59.7a7.41,7.41,0,0,1-3.14,6,13.69,13.69,0,0,1-7.32,2.27H105.39c-3.14,0-5.45,0-7.54-1.49s-4-4.55-4-6.82v-59.7a7.44,7.44,0,0,1,3.14-6,13.82,13.82,0,0,1,7.32-2.27Z" transform="translate(-64.84 -99.53)"/><path class="cls-7" d="M116.69,330.4h8.38c1,0,1,0,1-1v-8.93c0-1,0-1-1-1H116.7c-1,0-2.1,0-1,1v8.93C115.65,330.4,115.65,330.4,116.69,330.4Z" transform="translate(-64.84 -99.53)"/><path class="cls-7" d="M116.7,365.09c-1,0-1,0-1,1V374c0,1,0,1,1,1h8.38c1,0,1,0,1-1V366.1c0-1,.06-1-1-1Z" transform="translate(-64.84 -99.53)"/><path class="cls-7" d="M137.62,351.22v-7.94c0-1,0-1-1.05-1H116.69c-1,0-1,0-1,1h0v7.93c0,1,0,1,1,1h19.88C137.62,352.22,137.62,352.22,137.62,351.22Z" transform="translate(-64.84 -99.53)"/><path class="cls-7" d="M238.06,320.48c0-1,0-1-1-1h-9.43c-1,0-1,0-1,1v21.81h-9.42c-1,0-1,0-1,1v8c0,1,0,1,1,1H237c1.05,0,1.05,0,1.05-1Z" transform="translate(-64.84 -99.53)"/><path class="cls-7" d="M237,365.1h-8.38c-1,0-1,0-1,1V374c0,1,0,1,1,1H237c1.05,0,1.05,0,1.05-1V366.1c0-1,0-1-1-1Z" transform="translate(-64.84 -99.53)"/><path class="cls-7" d="M138.66,375H214c1,0,1,0,1-1V366.1c0-1,0-1-1-1H138.66c-1,0-1,0-1,1V374C137.62,375,137.62,375,138.66,375Z" transform="translate(-64.84 -99.53)"/><path class="cls-7" d="M138.66,330.4H147c1,0,1,0,1-1v-8.93c0-1,0-1-1-1h-8.37c-1,0-1,0-1,1v8.93C137.62,330.4,137.62,330.4,138.66,330.4Z" transform="translate(-64.84 -99.53)"/><path class="cls-7" d="M215,320.48c0-1,0-1-1-1h-8.36c-1.07,0-1.07,0-1.07,1v8.93c0,1,0,1,1.07,1H214c1,0,1,0,1-1Z" transform="translate(-64.84 -99.53)"/><path class="cls-7" d="M193.06,351.23h0c0,1,0,1,1,1h9.42c1.05,0,1.05,0,1.05-1v-7.94c0-1,0-1-1-1h-9.43c-1.05,0-1.05,0-1.05,1Z" transform="translate(-64.84 -99.53)"/><path class="cls-7" d="M158.53,352.22c1.05,0,1.05,0,1.05-1v-7.94c0-1,0-1-1-1h-8.37c-1,0-1,0-1,1v8c0,1,0,1,1,1Z" transform="translate(-64.84 -99.53)"/><path class="cls-7" d="M169,319.49h-8.38s-1,0-1,1v8.93c0,1,0,1,1,1h9.42c1,0,1,0,1-1v-8.93C171.09,319.49,170.05,319.49,169,319.49Z" transform="translate(-64.84 -99.53)"/><path class="cls-7" d="M192,319.49h-8.38c-1.05,0-1.05,0-1.05,1v8.93c0,1,0,1,1.05,1H192c1.05,0,1.05,0,1.05-1v-8.93C193.08,319.49,193.08,319.49,192,319.49Z" transform="translate(-64.84 -99.53)"/><path class="cls-7" d="M171.08,351.23c0,1,0,1,1.06,1h8.36c1.07,0,1.07,0,1.07-1v-8c0-1,0-1-1.07-1h-8.36c-1.06,0-1.06,0-1.06,1Z" transform="translate(-64.84 -99.53)"/><path d="M320.21,315.87l-12.52-12.51a17.78,17.78,0,0,0-5-3.52,18,18,0,0,0-7.67-1.74h-.12a18.52,18.52,0,0,0-11,3.9c-.79-1.1-2.4-2.12-4.9-3.1-4.8-1.92-5.1-4.72-5.12-5v0a1.15,1.15,0,0,0-1.16-1.15,1.17,1.17,0,0,0-1.17,1.17c0,.19.07,4.57,6.6,7.18,3.26,1.28,3.86,2.26,4,2.46a.28.28,0,0,0,0,.09A18.73,18.73,0,0,0,277,316.09a18,18,0,0,0,5.26,12.75l12.52,12.51a18,18,0,0,0,25.48-25.48Zm-1.66,23.83a15.72,15.72,0,0,1-22.16,0l-8.15-8.15-1.58.71a1.22,1.22,0,0,1-.46.09,1.17,1.17,0,0,1-.44-2.26l.71-.31-2.6-2.6a15.32,15.32,0,0,1-3.08-4.37,15.76,15.76,0,0,1-1.49-6.7,16.69,16.69,0,0,1,5.17-11.49A16.25,16.25,0,0,1,295,300.44a15.68,15.68,0,0,1,6.77,1.52A15.32,15.32,0,0,1,306,305l1.84,1.84c.09-.23.17-.45.24-.69a1.17,1.17,0,0,1,2.22.76c-.2.59-.42,1.16-.64,1.74l8.85,8.85a15.74,15.74,0,0,1,0,22.18Zm0,0" transform="translate(-64.84 -99.53)"/><path d="M290,308.74a1.17,1.17,0,1,0-1.66,1.66l5,5a1.17,1.17,0,0,0,.82.34,1.21,1.21,0,0,0,.83-.34,1.17,1.17,0,0,0,0-1.66Zm0,0" transform="translate(-64.84 -99.53)"/><path d="M309.7,308.68c.22-.58.44-1.16.64-1.75a1.16,1.16,0,0,0-.73-1.48,1.18,1.18,0,0,0-1.49.73c-.07.23-.16.46-.24.68a39.88,39.88,0,0,1-21.41,22.92l-.71.31a1.17,1.17,0,0,0,.44,2.26,1.22,1.22,0,0,0,.46-.09c.53-.22,1-.46,1.58-.71a42.19,42.19,0,0,0,21.46-22.87Zm0,0" transform="translate(-64.84 -99.53)"/></svg>