<svg id="图层_1" data-name="图层 1" xmlns="http://www.w3.org/2000/svg" viewBox="0 0 43.15 50.16"><defs><style>.cls-1{fill:#fff;}</style></defs><path class="cls-1" d="M31.63,9.87h-2a94.89,94.89,0,0,0-11,.36c-2.88.36-5.2,1.13-7,2.85A10.73,10.73,0,0,0,8.53,19.8a80.4,80.4,0,0,0-.38,10.35V44.77c0,1.92,0,3.45.08,4.69a11.22,11.22,0,0,0,.66,3.4,11.4,11.4,0,0,0,6.87,6.48c2,.69,4.34.69,8.16.69h2.37c6,0,9.58-.09,12.55-1.13A18.6,18.6,0,0,0,50.08,48.3a17.64,17.64,0,0,0,1.08-5.54c.14-2.13.14-4.77.14-8.17V28.48A78.76,78.76,0,0,0,51,20a10.66,10.66,0,0,0-2.1-5.74,11.25,11.25,0,0,0-2.35-2.22,12.09,12.09,0,0,0-6-1.94c-2.33-.25-5.25-.25-9-.25Zm2.12,46.47a9.49,9.49,0,0,0,2-5.84c0-.43,0-.87,0-1.29v-.15c0-.37,0-.71,0-1.05a7.49,7.49,0,0,1,.16-1.95,2.15,2.15,0,0,1,1.51-1.51,6.92,6.92,0,0,1,2-.16l1,0h.16c.41,0,.85,0,1.29,0a9.53,9.53,0,0,0,5.9-2v.1A14.55,14.55,0,0,1,46.83,47a15.13,15.13,0,0,1-9.14,8.59,15.62,15.62,0,0,1-3.94.74Zm14-21.43v0a6,6,0,0,1-6,6c-.35,0-.72,0-1.13,0H40.5l-1.15,0a10.65,10.65,0,0,0-2.92.28,5.67,5.67,0,0,0-4,4,10.3,10.3,0,0,0-.27,2.93c0,.39,0,.78,0,1.14v.15c0,.42,0,.79,0,1.13a6,6,0,0,1-5.9,6h-2c-4.35,0-6.07,0-7.39-.49a7.89,7.89,0,0,1-4.78-4.47,7.49,7.49,0,0,1-.43-2.34c-.07-1.51-.09-3-.07-4.52V30.29a79.6,79.6,0,0,1,.34-10c.33-2.32.95-3.67,2-4.66S16.54,14,19.06,13.7a96,96,0,0,1,10.66-.33h1.81c3.84,0,6.58,0,8.7.23a8.65,8.65,0,0,1,4.34,1.32,7.28,7.28,0,0,1,1.64,1.54,7.46,7.46,0,0,1,1.36,4,78.59,78.59,0,0,1,.23,8.16Zm0,0" transform="translate(-8.15 -9.87)"/></svg>