<svg id="图层_1" data-name="图层 1" xmlns="http://www.w3.org/2000/svg" viewBox="0 0 655.36 655.36"><path d="M336.13-9.8C325.48-181,183.35-317,9.68-317-170.95-317-318-169.95-318,10.68S-170.95,338.36,9.68,338.36c173.67,0,315.8-136,326.45-307.2h1.23v-41Zm-183.91,0A644.3,644.3,0,0,0,142-103.19,645.79,645.79,0,0,0,255.85-136,287.52,287.52,0,0,1,295.58-10.21H152.22ZM-224.2-138.41c31.95,13.1,65.13,22.52,99.12,30.3A708.11,708.11,0,0,0-133.27-9.8H-275.81a283.06,283.06,0,0,1,43.42-132.3c2.45,1.23,5.32,2.45,8.19,3.69Zm91.34,169.57a689.28,689.28,0,0,0,10.65,97.07c-38.09,8.2-75,20.89-110.18,35.64A288.21,288.21,0,0,1-276.22,31.16Zm41,0H111.26c-.41,29.9-3.28,59-7.37,87.65a639,639,0,0,0-84-5.73c-34,0-68,3.69-101.58,8.6A729.61,729.61,0,0,1-91.9,31.16Zm-.41-41a657.38,657.38,0,0,1,7.78-90.52,673.42,673.42,0,0,0,104,8.6A671.21,671.21,0,0,0,101-97c5.32,28.67,8.19,57.75,9.83,87.24Zm324-160.56c-32,11.46-64.72,20.89-98.3,27a610.72,610.72,0,0,0-42.6-120.83,286.53,286.53,0,0,1,140.9,93.8ZM39.17-274.4C62.52-233,80.54-186.75,92.83-137.19a621.64,621.64,0,0,1-170-3.68A565.78,565.78,0,0,1-30.87-272.76,266,266,0,0,1,9.68-276a237,237,0,0,1,29.49,1.64ZM-82.07-260.89a625.14,625.14,0,0,0-35.64,111.83c-30.72-6.56-61-15.16-89.7-26.63a283.62,283.62,0,0,1,125.34-85.2ZM-207,197.87c30.31-11.88,61.44-22.53,93.8-29.5A629.38,629.38,0,0,0-71.42,285.52C-124.67,270-171.36,238.83-207,197.87Zm187.6,97.89c-22.94-40.55-41-86-53.25-133.94,30.72-4.5,61.44-7.78,92.57-7.78a599.23,599.23,0,0,1,77,5.32A558.6,558.6,0,0,1,49.82,294.12,261.79,261.79,0,0,1,9.27,297.4a224.08,224.08,0,0,1-28.67-1.64Zm120.83-13.51c16-36.87,27.85-75.78,36.46-116.74a581,581,0,0,1,93.79,26.62,289.43,289.43,0,0,1-130.25,90.12ZM255.85,156.91c-35.63-13.93-72.5-25-110.59-31.95a707.76,707.76,0,0,0,7.37-93.8H295.17a285.31,285.31,0,0,1-39.32,125.75Zm0,0" transform="translate(318 317)"/></svg>