<svg id="图层_1_复制_14" data-name="图层 1_复制 14" xmlns="http://www.w3.org/2000/svg" xmlns:xlink="http://www.w3.org/1999/xlink" viewBox="0 0 590.29 580.93"><defs><style>.cls-1{fill:url(#未命名的渐变_596);}.cls-2{fill:url(#未命名的渐变_583);}.cls-3{fill:url(#未命名的渐变_596-2);}.cls-4{fill:url(#未命名的渐变_583-2);}.cls-5{fill:url(#未命名的渐变_596-3);}.cls-6{fill:url(#未命名的渐变_583-3);}.cls-7{fill:url(#未命名的渐变_596-4);}.cls-8{fill:url(#未命名的渐变_583-4);}.cls-9{fill:url(#未命名的渐变_596-5);}.cls-10{fill:url(#未命名的渐变_583-5);}</style><linearGradient id="未命名的渐变_596" x1="672.82" y1="493.82" x2="341.33" y2="302.43" gradientUnits="userSpaceOnUse"><stop offset="0" stop-color="#0d0d0d"/><stop offset="0.32" stop-color="#262626"/><stop offset="0.75" stop-color="#424242"/><stop offset="1" stop-color="#4d4d4d"/></linearGradient><linearGradient id="未命名的渐变_583" x1="616.14" y1="592.18" x2="547.2" y2="201.21" gradientUnits="userSpaceOnUse"><stop offset="0" stop-color="#333"/><stop offset="0.35" stop-color="#848484"/><stop offset="0.62" stop-color="#fff"/><stop offset="0.72" stop-color="#fff"/><stop offset="1" stop-color="#353535"/></linearGradient><linearGradient id="未命名的渐变_596-2" x1="544.48" y1="334.88" x2="248.34" y2="601.53" xlink:href="#未命名的渐变_596"/><linearGradient id="未命名的渐变_583-2" x1="614.48" y1="424.62" x2="221.35" y2="369.37" xlink:href="#未命名的渐变_583"/><linearGradient id="未命名的渐变_596-3" x1="347.64" y1="413.25" x2="509.72" y2="777.3" xlink:href="#未命名的渐变_596"/><linearGradient id="未命名的渐变_583-3" x1="454.61" y1="374.41" x2="280.58" y2="731.23" xlink:href="#未命名的渐变_583"/><linearGradient id="未命名的渐变_596-4" x1="361.34" y1="624.68" x2="757.66" y2="583.03" xlink:href="#未命名的渐变_596"/><linearGradient id="未命名的渐变_583-4" x1="357.46" y1="510.94" x2="643.03" y2="786.72" xlink:href="#未命名的渐变_583"/><linearGradient id="未命名的渐变_596-5" x1="566.66" y1="676.98" x2="649.51" y2="287.19" xlink:href="#未命名的渐变_596"/><linearGradient id="未命名的渐变_583-5" x1="457.28" y1="645.53" x2="807.81" y2="459.15" xlink:href="#未命名的渐变_583"/></defs><path class="cls-1" d="M699.35,425.47c-5.29,77.87-60.5,148.69-134.51,173.3h0A199,199,0,0,1,500,609.54c36-1,66.49-16.5,89.57-54.14,42.39-102-5.93-219-107.92-261.44A199.21,199.21,0,0,0,340,289.46a199.92,199.92,0,0,1,160.05-79.91h.71l1.81,0c1.77,0,3.55.07,5.33.14,2.66.11,5.32.26,8,.48C626,219,708.15,315.37,699.35,425.47Z" transform="translate(-204.86 -209.54)"/><path class="cls-2" d="M699.35,425.47C691,530.22,603.33,609.64,500,609.54c36-1,66.5-16.51,89.57-54.14C666.49,421,639,228.54,500,209.54c5.27,0,10.59.21,15.93.64C626,219,708.15,315.37,699.35,425.47Z" transform="translate(-204.86 -209.54)"/><path class="cls-3" d="M481.64,294c72.43,29.1,122.73,103.5,123.26,181.48h0a198.77,198.77,0,0,1-9.8,65c10.17-34.54,4.86-68.34-23.81-101.92-83.91-71.83-210.16-62.05-282,21.85a199.19,199.19,0,0,0-48,133.3,199.9,199.9,0,0,1-26.54-176.91.3.3,0,0,0,0,.08c.08-.25.17-.5.25-.75.19-.57.38-1.14.58-1.71q.86-2.53,1.77-5c.93-2.5,1.89-5,2.93-7.46C262.6,299.88,379.65,251.56,481.64,294Z" transform="translate(-204.86 -209.54)"/><path class="cls-4" d="M481.64,294C578.69,334.29,627.13,442.2,595.1,540.43c10.17-34.54,4.86-68.34-23.81-101.92-104-114.67-295.59-148-356.61-21.68q2.44-7.53,5.53-15C262.6,299.88,379.65,251.56,481.64,294Z" transform="translate(-204.86 -209.54)"/><path class="cls-5" d="M289.29,460.37c50.06-59.89,136.36-84.73,210.69-61.14h0a198.5,198.5,0,0,1,58.78,29.4c-29.7-20.35-63.49-25.73-104.28-8.85-94.25,57.6-124,180.7-66.36,274.94a199.15,199.15,0,0,0,111.93,86.89,200,200,0,0,1-176.46-29.43l.07.06c-.22-.15-.43-.32-.64-.47l-1.45-1.08c-1.42-1.07-2.84-2.14-4.24-3.25-2.09-1.65-4.15-3.33-6.19-5.09C227.24,670.52,217.46,544.27,289.29,460.37Z" transform="translate(-204.86 -209.54)"/><path class="cls-6" d="M289.29,460.37c68.35-79.83,186-92.56,269.48-31.74-29.71-20.35-63.5-25.73-104.29-8.85C313.27,483.27,222.37,655.17,323.66,752.24q-6.41-4.66-12.52-9.89C227.24,670.52,217.46,544.27,289.29,460.37Z" transform="translate(-204.86 -209.54)"/><path class="cls-7" d="M388.12,694.73c-41.49-66.11-38.45-155.86,7-219.26h0a198.52,198.52,0,0,1,46.13-46.83c-28.53,22-44.1,52.43-40.64,96.45,25.66,107.43,133.55,173.73,241,148.07a199.14,199.14,0,0,0,117.21-79.6,199.89,199.89,0,0,1-82.51,158.72l.08,0c-.21.16-.43.31-.65.46l-1.47,1c-1.45,1-2.92,2-4.4,3-2.21,1.47-4.45,2.92-6.75,4.31C568.81,818.69,445.72,789,388.12,694.73Z" transform="translate(-204.86 -209.54)"/><path class="cls-8" d="M388.12,694.73c-54.8-89.67-30.56-205.44,53.09-266.09-28.53,22-44.09,52.43-40.64,96.45C417.31,679,552.71,818.57,676.33,752.24q-6.41,4.65-13.27,8.85C568.81,818.69,445.72,789,388.12,694.73Z" transform="translate(-204.86 -209.54)"/><path class="cls-9" d="M641.56,673.16c-75.7,19-160.12-11.6-206.39-74.37h0a199,199,0,0,1-30.28-58.34c12.07,33.92,36.24,58.13,79.17,68.45,110.11,8.8,206.5-73.33,215.3-183.42A199.17,199.17,0,0,0,659.87,289.4,199.92,199.92,0,0,1,785.33,416.92s0-.06,0-.09l.24.76.54,1.72c.52,1.7,1,3.41,1.52,5.12.72,2.57,1.4,5.14,2,7.76C815.28,539.62,749,647.51,641.56,673.16Z" transform="translate(-204.86 -209.54)"/><path class="cls-10" d="M641.56,673.16c-102.22,24.41-204.84-34.42-236.67-132.72,12.08,33.93,36.24,58.14,79.17,68.46,151.55,31.64,326.13-54,301.25-192.07q2.45,7.53,4.32,15.36C815.28,539.62,749,647.51,641.56,673.16Z" transform="translate(-204.86 -209.54)"/></svg>