<?xml version="1.0" encoding="utf-8"?>
<!-- Generator: Adobe Illustrator 23.1.0, SVG Export Plug-In . SVG Version: 6.00 Build 0)  -->
<svg version="1.1" id="图层_1" xmlns="http://www.w3.org/2000/svg" xmlns:xlink="http://www.w3.org/1999/xlink" x="0px" y="0px"
	 viewBox="0 0 1000.04 1000.04" style="enable-background:new 0 0 1000.04 1000.04;" xml:space="preserve">
<style type="text/css">
	.st0{clip-path:url(#SVGID_2_);fill:#FFFFFF;}
</style>
<g>
	<defs>
		<rect id="SVGID_1_" width="1000.04" height="1000.04"/>
	</defs>
	<clipPath id="SVGID_2_">
		<use xlink:href="#SVGID_1_"  style="overflow:visible;"/>
	</clipPath>
	<path class="st0" d="M439.13,467.25c-104.86,4.91-189.78,61.16-189.78,131.07c0,69.91,84.93,122.6,189.78,117.69
		c104.86-4.91,190.05-70.45,190.05-140.63C629.18,505.75,544.26,462.34,439.13,467.25 M510.67,643.65
		c-32.22,41.51-95.57,61.72-157.56,28.4c-29.22-16.11-28.13-47.51-28.13-47.51s-12.29-98.85,93.39-111.14
		C524.05,501.11,542.89,602.15,510.67,643.65 M439.95,577.3c-6.83,4.92-8.19,14.2-4.37,20.21c3.55,6.01,11.74,6.55,18.29,1.64
		c6.55-5.19,9.01-14.2,5.46-20.21C455.79,573.2,447.86,571.56,439.95,577.3 M389.97,590.95c-19.66,1.91-33.86,19.11-33.86,35.77
		c0,16.38,15.84,27.85,35.5,25.4c19.66-2.18,35.5-17.48,35.5-33.86C427.38,601.88,412.64,588.77,389.97,590.95 M848.14,0H152.26
		C68.27,0,0,68.27,0,152.26v695.52c0,83.99,68.27,152.26,152.26,152.26h695.52c83.99,0,152.26-68.26,152.26-152.26V152.26
		C1000.4,68.27,932.13,0,848.14,0 M722.84,622.08c-43.15,91.75-185.96,136.53-291.64,128.34
		c-100.49-7.92-229.65-41.23-243.03-162.75c0,0-7.1-55.16,46.42-126.16c0,0,76.73-107.32,166.03-137.9
		c89.57-30.31,99.94,21.02,99.94,51.61c-4.64,25.94-13.65,40.96,19.93,30.58c0,0,87.93-40.69,124.25-4.64
		c29.22,29.21,4.91,69.36,4.91,69.36s-12.02,13.38,12.84,18.3C687.62,493.74,766.26,530.06,722.84,622.08 M636.28,368.13
		c-9.56,0-17.2-7.64-17.2-17.2c0-9.56,7.64-17.48,17.2-17.48c0,0,107.86-19.93,95.03,95.85c0,0.55,0,1.09-0.27,1.91
		c-1.09,8.19-8.47,14.47-16.93,14.47c-9.56,0-17.48-7.64-17.48-17.2C696.63,428.48,713.56,351.2,636.28,368.13 M818.41,460.97
		c-3,19.66-12.83,21.3-24.3,21.3c-13.92,0-25.12-8.74-25.12-22.66c0-12.02,4.91-24.3,4.91-24.3c1.36-5.19,13.11-36.59-7.64-83.56
		c-38.23-64.45-115.51-65.27-124.79-61.72c-9.29,3.55-22.66,5.46-22.66,5.46c-13.93,0-25.12-11.47-25.12-25.12
		c0-11.47,7.64-21.3,18.29-24.31l0.55-0.54c0.82-0.27,1.64-0.82,2.46-1.09c10.65-2.18,49.15-9.56,86.29-0.82
		C768.17,259.18,859.65,323.62,818.41,460.97"/>
</g>
</svg>
