<?xml version="1.0" encoding="utf-8"?>
<!-- Generator: Adobe Illustrator 23.1.0, SVG Export Plug-In . SVG Version: 6.00 Build 0)  -->
<svg version="1.1" id="图层_1" xmlns="http://www.w3.org/2000/svg" xmlns:xlink="http://www.w3.org/1999/xlink" x="0px" y="0px"
	 viewBox="0 0 1000.39 1000.39" style="enable-background:new 0 0 1000.39 1000.39;" xml:space="preserve">
<style type="text/css">
	.st0{clip-path:url(#SVGID_2_);fill:#FFFFFF;}
</style>
<g>
	<defs>
		<rect id="SVGID_1_" y="0" width="1000.39" height="1000.39"/>
	</defs>
	<clipPath id="SVGID_2_">
		<use xlink:href="#SVGID_1_"  style="overflow:visible;"/>
	</clipPath>
	<path class="st0" d="M290.35,354.57c0,18.14,14.63,32.77,32.76,32.77c18.14,0,32.77-14.63,32.77-32.77
		c0-18.14-14.63-32.77-32.77-32.77C304.98,321.8,290.35,336.43,290.35,354.57"/>
	<path class="st0" d="M545.61,523.97c0,14.19,11.56,25.75,25.75,25.75c14.19,0,25.75-11.56,25.75-25.75
		c0-14.19-11.56-25.75-25.75-25.75C557.02,498.37,545.61,509.78,545.61,523.97"/>
	<path class="st0" d="M457.55,354.57c0,18.14,14.63,32.77,32.77,32.77c18.14,0,32.77-14.63,32.77-32.77
		c0-18.14-14.63-32.77-32.77-32.77C472.18,321.8,457.55,336.43,457.55,354.57"/>
	<path class="st0" d="M997.38,146.27C997.38,64.49,930.07,0,851.11,0H146.27C64.3,0,0,67.31,0,146.27v707.85
		c0,81.79,67.31,146.27,146.27,146.27h707.85c81.79,0,146.27-67.31,146.27-146.27L997.38,146.27z M402.7,630.03
		c-29.41,0-53.1-6-82.65-11.85l-82.36,41.4l23.55-70.95c-59.1-41.25-94.35-94.5-94.35-159.3c0-112.2,106.2-200.7,235.96-200.7
		c116,0,217.67,70.66,238.15,165.74c-7.46-0.73-15.07-1.32-22.67-1.32c-112.05,0-200.56,83.53-200.56,186.66
		c0,17.12,2.63,33.64,7.31,49.45C417.47,629.73,410.15,630.03,402.7,630.03 M750.71,712.68l17.7,58.95l-64.66-35.4
		c-23.55,5.85-47.25,11.85-70.8,11.85c-112.2,0-200.71-76.65-200.71-171.15c0-94.36,88.36-171.16,200.71-171.16
		c106.06,0,200.41,76.95,200.41,171.16C833.36,630.03,798.11,677.13,750.71,712.68"/>
	<path class="st0" d="M674.06,523.97c0,14.19,11.55,25.75,25.75,25.75c14.19,0,25.75-11.56,25.75-25.75
		c0-14.19-11.56-25.75-25.75-25.75C685.61,498.37,674.06,509.78,674.06,523.97"/>
</g>
</svg>
