<?xml version="1.0" encoding="utf-8"?>
<!-- Generator: Adobe Illustrator 23.1.0, SVG Export Plug-In . SVG Version: 6.00 Build 0)  -->
<svg version="1.1" id="图层_1" xmlns="http://www.w3.org/2000/svg" xmlns:xlink="http://www.w3.org/1999/xlink" x="0px" y="0px"
	 viewBox="0 0 500 500" style="enable-background:new 0 0 500 500;" xml:space="preserve">
<style type="text/css">
	.st0{clip-path:url(#SVGID_2_);fill:#C6C6C6;}
	.st1{clip-path:url(#SVGID_2_);fill:#FFFFFF;}
</style>
<g>
	<defs>
		<rect id="SVGID_1_" width="500" height="500"/>
	</defs>
	<clipPath id="SVGID_2_">
		<use xlink:href="#SVGID_1_"  style="overflow:visible;"/>
	</clipPath>
	<path class="st0" d="M400,500H100C44.77,500,0,455.23,0,400V100C0,44.77,44.77,0,100,0h300c55.23,0,100,44.77,100,100v300
		C500,455.23,455.23,500,400,500"/>
	<path class="st1" d="M195,198.29c26.13,0,47.32-20.7,47.32-46.34c0-25.64-21.2-46.34-47.32-46.34s-47.33,20.7-47.33,46.34
		C147.68,177.58,168.88,198.29,195,198.29"/>
	<path class="st1" d="M371.2,187.07L237.78,313.91c-15.89,14.89-39.31,13.93-53.95-2.4l-28.44-31.23l-79.05,76.87v23.06
		c0,1.92,0,3.84,0.42,5.77c2.51,13.93,13.38,24.02,25.93,24.02h295.28c14.64,0,26.35-13.45,27.19-30.27V250.97
		C414.28,239.92,396.72,218.78,371.2,187.07"/>
</g>
</svg>
